<svg width="1440" height="500" viewBox="0 0 1440 500" fill="none" xmlns="http://www.w3.org/2000/svg">
<g clip-path="url(#clip0_493_3314)">
<rect width="1440" height="500" fill="#29C3BE"/>
<g clip-path="url(#clip1_493_3314)">
<path fill-rule="evenodd" clip-rule="evenodd" d="M19 170.92C19 165.516 23.477 161.136 29 161.136C34.523 161.136 39 165.516 39 170.92C39 176.323 34.523 180.704 29 180.704C29 186.107 24.523 190.488 19 190.488C13.477 190.488 9 186.107 9 180.704C9 175.3 13.477 170.92 19 170.92ZM-21 131.784C-21 126.38 -16.523 122 -11 122C-5.477 122 -1 126.38 -1 131.784C-1 137.188 -5.477 141.568 -11 141.568C-11 146.972 -15.477 151.352 -21 151.352C-26.523 151.352 -31 146.972 -31 141.568C-31 136.164 -26.523 131.784 -21 131.784ZM-11 139.611C-6.582 139.611 -3 136.107 -3 131.784C-3 127.461 -6.582 123.957 -11 123.957C-15.418 123.957 -19 127.461 -19 131.784C-19 136.107 -15.418 139.611 -11 139.611ZM29 178.747C33.418 178.747 37 175.242 37 170.92C37 166.597 33.418 163.093 29 163.093C24.582 163.093 21 166.597 21 170.92C21 175.242 24.582 178.747 29 178.747Z" fill="black"/>
<path fill-rule="evenodd" clip-rule="evenodd" d="M101 170.92C101 165.516 105.477 161.136 111 161.136C116.523 161.136 121 165.516 121 170.92C121 176.323 116.523 180.704 111 180.704C111 186.107 106.523 190.488 101 190.488C95.477 190.488 91 186.107 91 180.704C91 175.3 95.477 170.92 101 170.92ZM61 131.784C61 126.38 65.477 122 71 122C76.523 122 81 126.38 81 131.784C81 137.188 76.523 141.568 71 141.568C71 146.972 66.523 151.352 61 151.352C55.477 151.352 51 146.972 51 141.568C51 136.164 55.477 131.784 61 131.784ZM71 139.611C75.418 139.611 79 136.107 79 131.784C79 127.461 75.418 123.957 71 123.957C66.582 123.957 63 127.461 63 131.784C63 136.107 66.582 139.611 71 139.611ZM111 178.747C115.418 178.747 119 175.242 119 170.92C119 166.597 115.418 163.093 111 163.093C106.582 163.093 103 166.597 103 170.92C103 175.242 106.582 178.747 111 178.747Z" fill="black"/>
<path fill-rule="evenodd" clip-rule="evenodd" d="M183 170.92C183 165.516 187.477 161.136 193 161.136C198.523 161.136 203 165.516 203 170.92C203 176.323 198.523 180.704 193 180.704C193 186.107 188.523 190.488 183 190.488C177.477 190.488 173 186.107 173 180.704C173 175.3 177.477 170.92 183 170.92ZM143 131.784C143 126.38 147.477 122 153 122C158.523 122 163 126.38 163 131.784C163 137.188 158.523 141.568 153 141.568C153 146.972 148.523 151.352 143 151.352C137.477 151.352 133 146.972 133 141.568C133 136.164 137.477 131.784 143 131.784ZM153 139.611C157.418 139.611 161 136.107 161 131.784C161 127.461 157.418 123.957 153 123.957C148.582 123.957 145 127.461 145 131.784C145 136.107 148.582 139.611 153 139.611ZM193 178.747C197.418 178.747 201 175.242 201 170.92C201 166.597 197.418 163.093 193 163.093C188.582 163.093 185 166.597 185 170.92C185 175.242 188.582 178.747 193 178.747Z" fill="black"/>
<path fill-rule="evenodd" clip-rule="evenodd" d="M19 251.148C19 245.745 23.477 241.364 29 241.364C34.523 241.364 39 245.745 39 251.148C39 256.552 34.523 260.932 29 260.932C29 266.336 24.523 270.716 19 270.716C13.477 270.716 9 266.336 9 260.932C9 255.529 13.477 251.148 19 251.148ZM-21 212.012C-21 206.609 -16.523 202.229 -11 202.229C-5.477 202.229 -1 206.609 -1 212.012C-1 217.416 -5.477 221.796 -11 221.796C-11 227.2 -15.477 231.58 -21 231.58C-26.523 231.58 -31 227.2 -31 221.796C-31 216.393 -26.523 212.012 -21 212.012ZM-11 219.84C-6.582 219.84 -3 216.335 -3 212.012C-3 207.69 -6.582 204.185 -11 204.185C-15.418 204.185 -19 207.69 -19 212.012C-19 216.335 -15.418 219.84 -11 219.84ZM29 258.975C33.418 258.975 37 255.471 37 251.148C37 246.826 33.418 243.321 29 243.321C24.582 243.321 21 246.826 21 251.148C21 255.471 24.582 258.975 29 258.975Z" fill="black"/>
<path fill-rule="evenodd" clip-rule="evenodd" d="M101 251.148C101 245.745 105.477 241.364 111 241.364C116.523 241.364 121 245.745 121 251.148C121 256.552 116.523 260.932 111 260.932C111 266.336 106.523 270.716 101 270.716C95.477 270.716 91 266.336 91 260.932C91 255.529 95.477 251.148 101 251.148ZM61 212.012C61 206.609 65.477 202.229 71 202.229C76.523 202.229 81 206.609 81 212.012C81 217.416 76.523 221.796 71 221.796C71 227.2 66.523 231.58 61 231.58C55.477 231.58 51 227.2 51 221.796C51 216.393 55.477 212.012 61 212.012ZM71 219.84C75.418 219.84 79 216.335 79 212.012C79 207.69 75.418 204.185 71 204.185C66.582 204.185 63 207.69 63 212.012C63 216.335 66.582 219.84 71 219.84ZM111 258.975C115.418 258.975 119 255.471 119 251.148C119 246.826 115.418 243.321 111 243.321C106.582 243.321 103 246.826 103 251.148C103 255.471 106.582 258.975 111 258.975Z" fill="black"/>
<path fill-rule="evenodd" clip-rule="evenodd" d="M183 251.148C183 245.745 187.477 241.364 193 241.364C198.523 241.364 203 245.745 203 251.148C203 256.552 198.523 260.932 193 260.932C193 266.336 188.523 270.716 183 270.716C177.477 270.716 173 266.336 173 260.932C173 255.529 177.477 251.148 183 251.148ZM143 212.012C143 206.609 147.477 202.229 153 202.229C158.523 202.229 163 206.609 163 212.012C163 217.416 158.523 221.796 153 221.796C153 227.2 148.523 231.58 143 231.58C137.477 231.58 133 227.2 133 221.796C133 216.393 137.477 212.012 143 212.012ZM153 219.84C157.418 219.84 161 216.335 161 212.012C161 207.69 157.418 204.185 153 204.185C148.582 204.185 145 207.69 145 212.012C145 216.335 148.582 219.84 153 219.84ZM193 258.975C197.418 258.975 201 255.471 201 251.148C201 246.826 197.418 243.321 193 243.321C188.582 243.321 185 246.826 185 251.148C185 255.471 188.582 258.975 193 258.975Z" fill="black"/>
<path fill-rule="evenodd" clip-rule="evenodd" d="M19 331.377C19 325.973 23.477 321.593 29 321.593C34.523 321.593 39 325.973 39 331.377C39 336.78 34.523 341.16 29 341.16C29 346.564 24.523 350.944 19 350.944C13.477 350.944 9 346.564 9 341.16C9 335.757 13.477 331.377 19 331.377ZM-21 292.241C-21 286.837 -16.523 282.457 -11 282.457C-5.477 282.457 -1 286.837 -1 292.241C-1 297.644 -5.477 302.025 -11 302.025C-11 307.428 -15.477 311.809 -21 311.809C-26.523 311.809 -31 307.428 -31 302.025C-31 296.621 -26.523 292.241 -21 292.241ZM-11 300.068C-6.582 300.068 -3 296.563 -3 292.241C-3 287.918 -6.582 284.414 -11 284.414C-15.418 284.414 -19 287.918 -19 292.241C-19 296.563 -15.418 300.068 -11 300.068ZM29 339.204C33.418 339.204 37 335.699 37 331.377C37 327.054 33.418 323.549 29 323.549C24.582 323.549 21 327.054 21 331.377C21 335.699 24.582 339.204 29 339.204Z" fill="black"/>
<path fill-rule="evenodd" clip-rule="evenodd" d="M101 331.377C101 325.973 105.477 321.593 111 321.593C116.523 321.593 121 325.973 121 331.377C121 336.78 116.523 341.16 111 341.16C111 346.564 106.523 350.944 101 350.944C95.477 350.944 91 346.564 91 341.16C91 335.757 95.477 331.377 101 331.377ZM61 292.241C61 286.837 65.477 282.457 71 282.457C76.523 282.457 81 286.837 81 292.241C81 297.644 76.523 302.025 71 302.025C71 307.428 66.523 311.809 61 311.809C55.477 311.809 51 307.428 51 302.025C51 296.621 55.477 292.241 61 292.241ZM71 300.068C75.418 300.068 79 296.563 79 292.241C79 287.918 75.418 284.414 71 284.414C66.582 284.414 63 287.918 63 292.241C63 296.563 66.582 300.068 71 300.068ZM111 339.204C115.418 339.204 119 335.699 119 331.377C119 327.054 115.418 323.549 111 323.549C106.582 323.549 103 327.054 103 331.377C103 335.699 106.582 339.204 111 339.204Z" fill="black"/>
<path fill-rule="evenodd" clip-rule="evenodd" d="M183 331.377C183 325.973 187.477 321.593 193 321.593C198.523 321.593 203 325.973 203 331.377C203 336.78 198.523 341.16 193 341.16C193 346.564 188.523 350.944 183 350.944C177.477 350.944 173 346.564 173 341.16C173 335.757 177.477 331.377 183 331.377ZM143 292.241C143 286.837 147.477 282.457 153 282.457C158.523 282.457 163 286.837 163 292.241C163 297.644 158.523 302.025 153 302.025C153 307.428 148.523 311.809 143 311.809C137.477 311.809 133 307.428 133 302.025C133 296.621 137.477 292.241 143 292.241ZM153 300.068C157.418 300.068 161 296.563 161 292.241C161 287.918 157.418 284.414 153 284.414C148.582 284.414 145 287.918 145 292.241C145 296.563 148.582 300.068 153 300.068ZM193 339.204C197.418 339.204 201 335.699 201 331.377C201 327.054 197.418 323.549 193 323.549C188.582 323.549 185 327.054 185 331.377C185 335.699 188.582 339.204 193 339.204Z" fill="black"/>
<path fill-rule="evenodd" clip-rule="evenodd" d="M19 411.605C19 406.201 23.477 401.821 29 401.821C34.523 401.821 39 406.201 39 411.605C39 417.008 34.523 421.389 29 421.389C29 426.792 24.523 431.173 19 431.173C13.477 431.173 9 426.792 9 421.389C9 415.985 13.477 411.605 19 411.605ZM-21 372.469C-21 367.065 -16.523 362.685 -11 362.685C-5.477 362.685 -1 367.065 -1 372.469C-1 377.873 -5.477 382.253 -11 382.253C-11 387.657 -15.477 392.037 -21 392.037C-26.523 392.037 -31 387.657 -31 382.253C-31 376.849 -26.523 372.469 -21 372.469ZM-11 380.296C-6.582 380.296 -3 376.792 -3 372.469C-3 368.146 -6.582 364.642 -11 364.642C-15.418 364.642 -19 368.146 -19 372.469C-19 376.792 -15.418 380.296 -11 380.296ZM29 419.432C33.418 419.432 37 415.927 37 411.605C37 407.282 33.418 403.778 29 403.778C24.582 403.778 21 407.282 21 411.605C21 415.927 24.582 419.432 29 419.432Z" fill="black"/>
<path fill-rule="evenodd" clip-rule="evenodd" d="M101 411.605C101 406.201 105.477 401.821 111 401.821C116.523 401.821 121 406.201 121 411.605C121 417.008 116.523 421.389 111 421.389C111 426.792 106.523 431.173 101 431.173C95.477 431.173 91 426.792 91 421.389C91 415.985 95.477 411.605 101 411.605ZM61 372.469C61 367.065 65.477 362.685 71 362.685C76.523 362.685 81 367.065 81 372.469C81 377.873 76.523 382.253 71 382.253C71 387.657 66.523 392.037 61 392.037C55.477 392.037 51 387.657 51 382.253C51 376.849 55.477 372.469 61 372.469ZM71 380.296C75.418 380.296 79 376.792 79 372.469C79 368.146 75.418 364.642 71 364.642C66.582 364.642 63 368.146 63 372.469C63 376.792 66.582 380.296 71 380.296ZM111 419.432C115.418 419.432 119 415.927 119 411.605C119 407.282 115.418 403.778 111 403.778C106.582 403.778 103 407.282 103 411.605C103 415.927 106.582 419.432 111 419.432Z" fill="black"/>
<path fill-rule="evenodd" clip-rule="evenodd" d="M183 411.605C183 406.201 187.477 401.821 193 401.821C198.523 401.821 203 406.201 203 411.605C203 417.008 198.523 421.389 193 421.389C193 426.792 188.523 431.173 183 431.173C177.477 431.173 173 426.792 173 421.389C173 415.985 177.477 411.605 183 411.605ZM143 372.469C143 367.065 147.477 362.685 153 362.685C158.523 362.685 163 367.065 163 372.469C163 377.873 158.523 382.253 153 382.253C153 387.657 148.523 392.037 143 392.037C137.477 392.037 133 387.657 133 382.253C133 376.849 137.477 372.469 143 372.469ZM153 380.296C157.418 380.296 161 376.792 161 372.469C161 368.146 157.418 364.642 153 364.642C148.582 364.642 145 368.146 145 372.469C145 376.792 148.582 380.296 153 380.296ZM193 419.432C197.418 419.432 201 415.927 201 411.605C201 407.282 197.418 403.778 193 403.778C188.582 403.778 185 407.282 185 411.605C185 415.927 188.582 419.432 193 419.432Z" fill="black"/>
</g>
<g filter="url(#filter0_iiii_493_3314)">
<path d="M144.893 232.472C179.339 224.469 168.997 175.578 199.266 160.402C238.868 140.545 301.389 163.88 334.417 137.447C367.939 110.618 371.976 65.892 365.231 27.5733C357.936 -13.871 336.581 -56.52 295.607 -83.0383C255.115 -109.245 199.468 -115.907 148.459 -112.722C103.26 -109.901 70.1988 -81.9136 29.591 -66.4303C-9.66714 -51.4617 -62.1614 -52.1808 -86.2782 -23.2199C-110.436 5.7907 -106.644 46.5779 -92.7047 80.4296C-80.3762 110.37 -43.5075 127.705 -15.0725 149.705C6.65463 166.515 28.8894 180.998 54.2157 194.102C83.5674 209.288 112.034 240.106 144.893 232.472Z" fill="#2AB1AD"/>
</g>
<path d="M753.499 -17.0001V-17.0001C773.51 -54.3388 827.542 -52.8614 845.482 -14.4851L1031.2 382.781C1031.54 383.51 1032.55 383.558 1032.96 382.865L1200.25 99.0588C1219.86 65.8005 1268.16 66.3631 1286.98 100.069L1340 195" stroke="#25CEC9" stroke-width="8" stroke-linecap="round" stroke-linejoin="round" stroke-dasharray="1 16"/>
</g>
<defs>
<filter id="filter0_iiii_493_3314" x="-116" y="-131" width="494.355" height="394.829" filterUnits="userSpaceOnUse" color-interpolation-filters="sRGB">
<feFlood flood-opacity="0" result="BackgroundImageFix"/>
<feBlend mode="normal" in="SourceGraphic" in2="BackgroundImageFix" result="shape"/>
<feColorMatrix in="SourceAlpha" type="matrix" values="0 0 0 0 0 0 0 0 0 0 0 0 0 0 0 0 0 0 127 0" result="hardAlpha"/>
<feOffset dy="16"/>
<feGaussianBlur stdDeviation="16"/>
<feComposite in2="hardAlpha" operator="arithmetic" k2="-1" k3="1"/>
<feColorMatrix type="matrix" values="0 0 0 0 0 0 0 0 0 0 0 0 0 0 0 0 0 0 0.16 0"/>
<feBlend mode="normal" in2="shape" result="effect1_innerShadow_493_3314"/>
<feColorMatrix in="SourceAlpha" type="matrix" values="0 0 0 0 0 0 0 0 0 0 0 0 0 0 0 0 0 0 127 0" result="hardAlpha"/>
<feOffset dy="8"/>
<feGaussianBlur stdDeviation="8"/>
<feComposite in2="hardAlpha" operator="arithmetic" k2="-1" k3="1"/>
<feColorMatrix type="matrix" values="0 0 0 0 0 0 0 0 0 0 0 0 0 0 0 0 0 0 0.12 0"/>
<feBlend mode="normal" in2="effect1_innerShadow_493_3314" result="effect2_innerShadow_493_3314"/>
<feColorMatrix in="SourceAlpha" type="matrix" values="0 0 0 0 0 0 0 0 0 0 0 0 0 0 0 0 0 0 127 0" result="hardAlpha"/>
<feOffset dy="4"/>
<feGaussianBlur stdDeviation="4"/>
<feComposite in2="hardAlpha" operator="arithmetic" k2="-1" k3="1"/>
<feColorMatrix type="matrix" values="0 0 0 0 0 0 0 0 0 0 0 0 0 0 0 0 0 0 0.12 0"/>
<feBlend mode="normal" in2="effect2_innerShadow_493_3314" result="effect3_innerShadow_493_3314"/>
<feColorMatrix in="SourceAlpha" type="matrix" values="0 0 0 0 0 0 0 0 0 0 0 0 0 0 0 0 0 0 127 0" result="hardAlpha"/>
<feOffset dy="2"/>
<feGaussianBlur stdDeviation="2"/>
<feComposite in2="hardAlpha" operator="arithmetic" k2="-1" k3="1"/>
<feColorMatrix type="matrix" values="0 0 0 0 0 0 0 0 0 0 0 0 0 0 0 0 0 0 0.12 0"/>
<feBlend mode="normal" in2="effect3_innerShadow_493_3314" result="effect4_innerShadow_493_3314"/>
</filter>
<clipPath id="clip0_493_3314">
<rect width="1440" height="500" fill="white"/>
</clipPath>
<clipPath id="clip1_493_3314">
<rect width="236" height="317" fill="white" transform="translate(-31 122)"/>
</clipPath>
</defs>
</svg>
